<svg height="512pt" viewBox="0 -22 512 512" width="512pt" xmlns="http://www.w3.org/2000/svg"><path d="m416 206v-50.332031h-32.457031c-16.273438-48.832031-59.855469-85.285157-112.542969-91.164063v-34.503906h38.332031v-30h-68.332031v64.503906c-52.6875 5.878906-96.269531 42.332032-112.542969 91.164063h-32.457031v50.332031zm0 0"/><path d="m416 236v201.335938h-30v-201.335938h-34v201.335938h-30v-34h-132v34h-30v-201.335938h-34v201.335938h-30v-201.335938h-74.667969v201.335938h-21.332031v30h512v-30h-21.335938v-201.335938zm0 0"/><path d="m190 236h132v137.332031h-132zm0 0"/></svg>